<svg width="137" height="137" viewBox="0 0 137 137" fill="none" xmlns="http://www.w3.org/2000/svg">
<path d="M123.514 32.8586L71.818 3.10396C70.9617 2.5688 69.7844 2.35474 68.5 2.35474C67.2156 2.35474 66.0383 2.67583 65.182 3.10396L13.807 32.9657C11.9875 34.036 10.7031 36.7118 10.7031 38.7454V98.3618C10.7031 99.5391 10.9172 100.931 11.7734 102.108L126.083 35.7485C125.441 34.4641 124.477 33.5008 123.514 32.8586Z" fill="#9B4F96"/>
<path d="M11.4523 102.001C11.9875 102.857 12.7367 103.606 13.4859 104.034L65.075 133.896C65.9312 134.431 67.1086 134.645 68.393 134.645C69.6773 134.645 70.8547 134.324 71.7109 133.896L123.086 104.034C124.905 102.964 126.19 100.288 126.19 98.2546V38.6382C126.19 37.675 126.083 36.6046 125.548 35.6414L11.4523 102.001Z" fill="#68217A"/>
<path d="M91.2977 81.4508C86.8023 89.3711 78.2398 94.7227 68.5 94.7227C54.0508 94.7227 42.2773 82.9492 42.2773 68.5C42.2773 54.0508 54.0508 42.2773 68.5 42.2773C78.2398 42.2773 86.8023 47.6289 91.2977 55.6562L105.212 47.6289C97.9336 34.8922 84.2336 26.2227 68.5 26.2227C45.1672 26.2227 26.2227 45.1672 26.2227 68.5C26.2227 91.8328 45.1672 110.777 68.5 110.777C84.1266 110.777 97.8266 102.215 105.105 89.5852L91.2977 81.4508ZM103.82 70.8547L104.784 66.2523H100.288V61.2219H105.747L107.031 54.5859H112.276L110.991 61.1148H115.059L116.343 54.5859H121.48L120.196 61.1148H122.765V66.1453H119.233L118.27 70.7477H122.765V75.7781H117.306L116.022 82.2H110.777L112.062 75.7781H107.995L106.71 82.2H101.573L102.857 75.7781H100.288V70.7477H103.82V70.8547ZM108.958 70.8547H113.025L113.988 66.2523H109.921L108.958 70.8547Z" fill="white"/>
</svg>
