<svg width="32" height="32" viewBox="0 0 32 32" fill="none" xmlns="http://www.w3.org/2000/svg">
<g id="dashicons:welcome-learn-more">
<path id="Vector" d="M16 16.0002L4.064 11.2322L4.8 28.8002H1.6L2.368 10.5442L0 9.6002L16 3.2002L32 9.6002L16 16.0002ZM16 8.0002C15.12 8.0002 14.4 8.3522 14.4 8.8002C14.4 9.2482 15.12 9.6002 16 9.6002C16.88 9.6002 17.6 9.2482 17.6 8.8002C17.6 8.3522 16.88 8.0002 16 8.0002ZM16 17.6002L24.912 14.0322C26.048 15.5362 26.832 17.3442 27.088 19.3122C26.608 19.2482 26.112 19.2002 25.6 19.2002C21.52 19.2002 17.952 21.3922 16 24.6562C15.0087 22.9938 13.603 21.6172 11.9203 20.6608C10.2376 19.7045 8.33548 19.2012 6.4 19.2002C5.888 19.2002 5.392 19.2482 4.912 19.3122C5.168 17.3442 5.952 15.5362 7.088 14.0322L16 17.6002Z" fill="#FFAF1A"/>
</g>
</svg>
