<svg width="20" height="20" viewBox="0 0 20 20" fill="none" xmlns="http://www.w3.org/2000/svg">
<g id="Icon - Plus">
<path id="Icon - New Tab" fill-rule="evenodd" clip-rule="evenodd" d="M15.7143 10.9521H10.9524V15.714C10.9524 16.2378 10.5238 16.6663 9.99998 16.6663C9.47617 16.6663 9.0476 16.2378 9.0476 15.714V10.9521H4.28569C3.76188 10.9521 3.33331 10.5235 3.33331 9.99967C3.33331 9.47586 3.76188 9.04729 4.28569 9.04729H9.0476V4.28539C9.0476 3.76158 9.47617 3.33301 9.99998 3.33301C10.5238 3.33301 10.9524 3.76158 10.9524 4.28539V9.04729H15.7143C16.2381 9.04729 16.6666 9.47586 16.6666 9.99967C16.6666 10.5235 16.2381 10.9521 15.7143 10.9521Z" fill="#BDC1C6"/>
</g>
</svg>
