<svg width="16" height="16" viewBox="0 0 16 16" fill="none" xmlns="http://www.w3.org/2000/svg">
<g id="Icon - Home">
<path id="Container" fill-rule="evenodd" clip-rule="evenodd" d="M8 2.00801C7.81745 1.98291 7.62543 2.03564 7.47803 2.16903L2.21104 6.93569C1.94738 7.17431 1.92606 7.58111 2.16333 7.84597C2.40231 8.11274 2.81268 8.13425 3.07824 7.89392L3.47388 7.53586V12.7049V13.0002C3.47388 13.5525 3.9216 14.0002 4.47388 14.0002H4.76264H11.2064H11.4951C12.0474 14.0002 12.4951 13.5525 12.4951 13.0002V12.7049V7.50782L12.9218 7.89392C13.1873 8.13425 13.5977 8.11274 13.8367 7.84597C14.0739 7.58111 14.0526 7.17431 13.789 6.93569L8.52197 2.16903C8.37457 2.03564 8.18256 1.98291 8 2.00801ZM4.76264 6.36953V7.22822V8.1859V8.22822V10.7049V12.0002V12.0426V12.7049H5.42956H5.47389H6.76264H9.20639H10.4951H10.5395H11.2064V12.0426V12.0002V10.7049V8.22822V8.1859V7.22822V6.3415L8 3.4397L4.76264 6.36953Z" fill="white"/>
</g>
</svg>
