<svg width="16" height="16" viewBox="0 0 16 16" fill="none" xmlns="http://www.w3.org/2000/svg">
<g id="Icon - More">
<path id="Container" fill-rule="evenodd" clip-rule="evenodd" d="M8.16669 5C8.99169 5 9.66669 4.325 9.66669 3.5C9.66669 2.675 8.99169 2 8.16669 2C7.34169 2 6.66669 2.675 6.66669 3.5C6.66669 4.325 7.34169 5 8.16669 5ZM8.16669 6.5C7.34169 6.5 6.66669 7.175 6.66669 8C6.66669 8.825 7.34169 9.5 8.16669 9.5C8.99169 9.5 9.66669 8.825 9.66669 8C9.66669 7.175 8.99169 6.5 8.16669 6.5ZM8.16669 11C7.34169 11 6.66669 11.675 6.66669 12.5C6.66669 13.325 7.34169 14 8.16669 14C8.99169 14 9.66669 13.325 9.66669 12.5C9.66669 11.675 8.99169 11 8.16669 11Z" fill="#5F6368"/>
</g>
</svg>
