<svg width="36" height="37" viewBox="0 0 36 37" fill="none" xmlns="http://www.w3.org/2000/svg">
<g id="Social Media Icon Square/Instagram">
<path id="Instagram" fill-rule="evenodd" clip-rule="evenodd" d="M9 18.5C9 14.9049 9 13.1073 9.85669 11.8126C10.2392 11.2344 10.7344 10.7392 11.3126 10.3567C12.6073 9.5 14.4049 9.5 18 9.5C21.5951 9.5 23.3927 9.5 24.6874 10.3567C25.2656 10.7392 25.7608 11.2344 26.1433 11.8126C27 13.1073 27 14.9049 27 18.5C27 22.0951 27 23.8927 26.1433 25.1874C25.7608 25.7656 25.2656 26.2608 24.6874 26.6433C23.3927 27.5 21.5951 27.5 18 27.5C14.4049 27.5 12.6073 27.5 11.3126 26.6433C10.7344 26.2608 10.2392 25.7656 9.85669 25.1874C9 23.8927 9 22.0951 9 18.5ZM22.6593 18.5002C22.6593 21.0735 20.5732 23.1596 17.9998 23.1596C15.4265 23.1596 13.3404 21.0735 13.3404 18.5002C13.3404 15.9269 15.4265 13.8408 17.9998 13.8408C20.5732 13.8408 22.6593 15.9269 22.6593 18.5002ZM17.9998 21.5832C19.7025 21.5832 21.0828 20.2029 21.0828 18.5002C21.0828 16.7975 19.7025 15.4172 17.9998 15.4172C16.2971 15.4172 14.9168 16.7975 14.9168 18.5002C14.9168 20.2029 16.2971 21.5832 17.9998 21.5832ZM22.8433 14.7015C23.4479 14.7015 23.9381 14.2114 23.9381 13.6067C23.9381 13.0021 23.4479 12.5119 22.8433 12.5119C22.2386 12.5119 21.7485 13.0021 21.7485 13.6067C21.7485 14.2114 22.2386 14.7015 22.8433 14.7015Z" fill="#FAFFFF"/>
</g>
</svg>
