<svg width="36" height="37" viewBox="0 0 36 37" fill="none" xmlns="http://www.w3.org/2000/svg">
<g id="Social Media Icon Square/LinkedIn">
<g id="Group 73">
<path id="LinkedIn" d="M9 11.9201C9 11.3428 9.20271 10.8666 9.60811 10.4915C10.0135 10.1163 10.5405 9.92871 11.1892 9.92871C11.8263 9.92871 12.3417 10.1134 12.7355 10.4828C13.1409 10.8638 13.3436 11.3602 13.3436 11.972C13.3436 12.5261 13.1467 12.9879 12.7529 13.3573C12.3475 13.7382 11.8147 13.9287 11.1544 13.9287H11.1371C10.5 13.9287 9.98456 13.7382 9.59073 13.3573C9.19691 12.9763 9 12.4972 9 11.9201ZM9.22587 27.0716V15.5045H13.083V27.0716H9.22587ZM15.2201 27.0716H19.0772V20.6127C19.0772 20.2086 19.1236 19.8969 19.2162 19.6776C19.3784 19.2851 19.6245 18.9532 19.9546 18.682C20.2847 18.4107 20.6988 18.275 21.1969 18.275C22.4942 18.275 23.1429 19.1466 23.1429 20.8897V27.0716H27V20.4395C27 18.731 26.5946 17.4352 25.7838 16.5521C24.973 15.669 23.9015 15.2274 22.5695 15.2274C21.0753 15.2274 19.9112 15.8681 19.0772 17.1495V17.1841H19.0598L19.0772 17.1495V15.5045H15.2201C15.2432 15.8739 15.2548 17.0225 15.2548 18.9504C15.2548 20.8782 15.2432 23.5853 15.2201 27.0716Z" fill="#FAFFFF"/>
</g>
</g>
</svg>
