<svg width="24" height="24" viewBox="0 0 24 24" fill="none" xmlns="http://www.w3.org/2000/svg">
<g id="Icons/logo-google">
<path id="Vector" d="M20.6452 10.3123C20.7577 10.9148 20.8189 11.5447 20.8189 12.2021C20.8189 17.3439 17.3777 21 12.1801 21C10.9981 21.0004 9.82758 20.7678 8.73549 20.3157C7.64339 19.8635 6.6511 19.2006 5.8153 18.3648C4.9795 17.529 4.31658 16.5367 3.86441 15.4446C3.41225 14.3525 3.1797 13.182 3.18006 12C3.1797 10.818 3.41225 9.64752 3.86441 8.55543C4.31658 7.46333 4.9795 6.47104 5.8153 5.63524C6.6511 4.79944 7.64339 4.13652 8.73549 3.68435C9.82758 3.23219 10.9981 2.99964 12.1801 3C14.6102 3 16.6408 3.89415 18.1987 5.346L15.6616 7.88308V7.87668C14.7171 6.97704 13.5185 6.51534 12.1801 6.51534C9.21054 6.51534 6.79689 9.02408 6.79689 11.9945C6.79689 14.964 9.21054 17.4783 12.1801 17.4783C14.8744 17.4783 16.7084 15.9377 17.0851 13.8221H12.1801V10.3123H20.6461H20.6452Z" fill="#FAFFFF"/>
</g>
</svg>
