<svg width="109" height="155" viewBox="0 0 109 155" fill="none" xmlns="http://www.w3.org/2000/svg">
<g clip-path="url(#clip0_61_316)">
<path d="M54.4336 154.111L10.0748 141.773L0.189484 30.6882H108.811L98.9149 141.756L54.4336 154.111Z" fill="#264DE4"/>
<path d="M90.4432 134.684L98.8992 39.7709H54.5V144.667L90.4432 134.684Z" fill="#2965F1"/>
<path d="M22.8513 80.9708L24.0698 94.5949H54.5V80.9708H22.8513ZM20.4022 53.3954L21.6382 67.0195H54.5V53.3954H20.4022ZM54.5 116.354L54.4404 116.37L39.2962 112.273L38.328 101.407H24.6774L26.5824 122.799L54.4374 130.546L54.5 130.529V116.354Z" fill="#EBEBEB"/>
<path d="M86.0619 80.9708L88.5165 53.3954H54.4532V67.0195H73.6142L72.3768 80.9708H54.4532V94.5949H71.1978L69.6191 112.264L54.4527 116.366V130.54L82.3299 122.799L82.5343 120.497L85.7302 84.6292L86.0619 80.9708Z" fill="white"/>
</g>
<defs>
<clipPath id="clip0_61_316">
<rect width="109" height="154" fill="white" transform="translate(0 0.5)"/>
</clipPath>
</defs>
</svg>
