<svg width="137" height="137" viewBox="0 0 137 137" fill="none" xmlns="http://www.w3.org/2000/svg">
<g clip-path="url(#clip0_61_405)">
<path d="M27.94 109.06L4.50227 85.6224C1.72213 82.7727 0 78.7435 0 74.8052C0 72.982 1.0275 70.1317 1.80294 68.5L23.4377 23.4377L27.94 109.06Z" fill="#01579B"/>
<path d="M108.164 27.94L84.7259 4.50227C82.6816 2.44727 78.4207 0 74.8148 0C71.7131 0 68.6713 0.624527 66.7072 1.80294L23.4479 23.4377L108.164 27.94ZM55.88 137H112.666V112.666L70.3029 99.1393L31.5459 112.666L55.88 137Z" fill="#40C4FF"/>
<path d="M23.4377 96.4399C23.4377 103.672 24.3442 105.444 27.94 109.06L31.5458 112.666H112.666L73.0124 67.6036L23.4377 23.4371V96.4399Z" fill="#29B6F6"/>
<path d="M95.5436 23.4275H23.4377L112.666 112.656H137V56.7763L108.153 27.9298C104.104 23.8706 100.509 23.4275 95.5436 23.4275Z" fill="#01579B"/>
<path opacity="0.2" d="M28.8465 109.956C25.2406 106.341 24.3442 102.775 24.3442 96.4399V24.3335L23.4479 23.4371V96.4394C23.4371 102.775 23.4372 104.527 28.8465 109.956L31.5458 112.655L28.8465 109.956Z" fill="white"/>
<path opacity="0.2" d="M136.104 55.8799V111.759H111.77L112.666 112.666H137V56.7763L136.104 55.8799Z" fill="#263238"/>
<path opacity="0.2" d="M108.164 27.94C103.692 23.4677 100.036 23.4377 94.6472 23.4377H23.4479L24.3443 24.3341H94.6472C97.3364 24.3341 104.125 23.8809 108.164 27.94Z" fill="white"/>
<path opacity="0.2" d="M136.104 55.8799L108.164 27.9394L84.726 4.5028C82.6817 2.44727 78.4207 0 74.8148 0C71.7131 0 68.6713 0.624527 66.7072 1.80294L23.4479 23.4377L1.81312 68.5C1.03714 70.1419 0.00964355 72.9921 0.00964355 74.8052C0.00964355 78.7434 1.74248 82.7619 4.51245 85.6223L26.1065 107.066C26.6203 107.7 27.225 108.345 27.94 109.06L28.8364 109.956L31.5357 112.656L54.9734 136.093L55.8698 136.99H112.645V112.656H136.979V56.7758L136.104 55.8799Z" fill="url(#paint0_radial_61_405)"/>
</g>
<defs>
<radialGradient id="paint0_radial_61_405" cx="0" cy="0" r="1" gradientUnits="userSpaceOnUse" gradientTransform="translate(6848.48 6848.74) scale(6849.02 6849.01)">
<stop stop-color="white" stop-opacity="0.1"/>
<stop offset="1" stop-color="white" stop-opacity="0"/>
</radialGradient>
<clipPath id="clip0_61_405">
<rect width="137" height="137" fill="white"/>
</clipPath>
</defs>
</svg>
