<svg width="25" height="25" viewBox="0 0 25 25" fill="none" xmlns="http://www.w3.org/2000/svg">
<g id="map:gym" clip-path="url(#clip0_152_3526)">
<path id="Vector" d="M8.9812 22.4371C9.07113 22.5346 9.11896 22.6637 9.11428 22.7963C9.1096 22.9288 9.05279 23.0542 8.9562 23.1451L7.8702 24.1606C7.77316 24.2506 7.64442 24.2984 7.51218 24.2937C7.37994 24.2889 7.25498 24.2319 7.1647 24.1351L0.840195 17.3191C0.75032 17.2216 0.702583 17.0925 0.707358 16.9599C0.712133 16.8273 0.769034 16.702 0.865695 16.6111L1.9532 15.5971C2.05023 15.5072 2.17897 15.4593 2.31121 15.4641C2.44346 15.4689 2.56841 15.5259 2.6587 15.6226L8.9812 22.4371ZM17.0512 9.61213C17.1411 9.7097 17.1888 9.8388 17.184 9.97137C17.1793 10.1039 17.1224 10.2293 17.0257 10.3201L10.1907 16.7051C10.0937 16.7951 9.96492 16.8429 9.83268 16.8382C9.70043 16.8334 9.57548 16.7764 9.4852 16.6796L7.8537 14.9191C7.76382 14.8216 7.71608 14.6925 7.72086 14.5599C7.72563 14.4273 7.78253 14.302 7.8792 14.2111L14.7127 7.82613C14.7606 7.78147 14.8169 7.74671 14.8783 7.72382C14.9397 7.70093 15.005 7.69036 15.0705 7.69273C15.136 7.6951 15.2003 7.71035 15.2599 7.73762C15.3195 7.76488 15.3731 7.80363 15.4177 7.85163L17.0512 9.61213ZM11.3067 20.2636C11.4937 20.4651 11.4822 20.7836 11.2812 20.9716L10.1937 21.9866C10.0967 22.0766 9.96792 22.1244 9.83568 22.1197C9.70343 22.1149 9.57848 22.0579 9.4882 21.9611L3.1672 15.1451C3.07726 15.0476 3.02943 14.9186 3.03411 14.786C3.03879 14.6534 3.0956 14.5281 3.1922 14.4371L4.2777 13.4226C4.37473 13.3327 4.50347 13.2848 4.63571 13.2896C4.76796 13.2944 4.89291 13.3514 4.9832 13.4481L11.3067 20.2636ZM21.8382 9.85663C21.928 9.95427 21.9757 10.0834 21.9708 10.216C21.9659 10.3485 21.9089 10.4738 21.8122 10.5646L20.7252 11.5796C20.6282 11.6698 20.4994 11.7178 20.367 11.7132C20.2347 11.7085 20.1096 11.6515 20.0192 11.5546L13.6972 4.74013C13.6071 4.64268 13.5592 4.51359 13.5639 4.38098C13.5686 4.24837 13.6255 4.12298 13.7222 4.03213L14.8122 3.01463C14.8601 2.96997 14.9164 2.9352 14.9778 2.91232C15.0392 2.88943 15.1045 2.87886 15.17 2.88123C15.2355 2.8836 15.2998 2.89885 15.3594 2.92612C15.419 2.95338 15.4726 2.99213 15.5172 3.04013L21.8382 9.85663ZM24.1602 7.68663C24.2499 7.7844 24.2974 7.91353 24.2927 8.04611C24.2879 8.17868 24.2312 8.30406 24.1347 8.39513L23.0497 9.40963C23.0018 9.45432 22.9455 9.48912 22.8842 9.51206C22.8228 9.53499 22.7575 9.5456 22.692 9.54327C22.6265 9.54095 22.5622 9.52575 22.5026 9.49852C22.443 9.4713 22.3893 9.4326 22.3447 9.38463L16.0237 2.56713C15.934 2.46942 15.8863 2.34033 15.891 2.20776C15.8957 2.07518 15.9523 1.94977 16.0487 1.85863L17.1347 0.842131C17.1825 0.797396 17.2387 0.762548 17.3001 0.739585C17.3614 0.716623 17.4267 0.705998 17.4921 0.708321C17.5576 0.710644 17.6219 0.725868 17.6815 0.753121C17.7411 0.780373 17.7946 0.819117 17.8392 0.867131L24.1602 7.68663Z" fill="#00B1BC"/>
</g>
<defs>
<clipPath id="clip0_152_3526">
<rect width="25" height="25" fill="white"/>
</clipPath>
</defs>
</svg>
