<svg width="32" height="32" viewBox="0 0 32 32" fill="none" xmlns="http://www.w3.org/2000/svg">
<path d="M18.6667 20.0003C19.0445 20.0003 19.3725 19.8617 19.6507 19.5843C19.9289 19.307 20.0676 18.979 20.0667 18.6003C20.0658 18.2217 19.9271 17.8941 19.6507 17.6177C19.3742 17.3412 19.0462 17.2021 18.6667 17.2003C18.2871 17.1985 17.9596 17.3377 17.684 17.6177C17.4085 17.8977 17.2694 18.2252 17.2667 18.6003C17.264 18.9754 17.4031 19.3034 17.684 19.5843C17.9649 19.8652 18.2925 20.0039 18.6667 20.0003ZM18.6667 15.7337C18.9111 15.7337 19.1391 15.6448 19.3507 15.467C19.5622 15.2892 19.6898 15.0559 19.7334 14.767C19.7778 14.5003 19.872 14.2559 20.016 14.0337C20.16 13.8114 20.4214 13.5114 20.8 13.1337C21.4667 12.467 21.9111 11.9279 22.1334 11.5163C22.3556 11.1048 22.4667 10.6217 22.4667 10.067C22.4667 9.06699 22.1165 8.2501 21.416 7.61633C20.7156 6.98255 19.7991 6.6661 18.6667 6.66699C17.9334 6.66699 17.2667 6.83366 16.6667 7.16699C16.0667 7.50033 15.5889 7.9781 15.2334 8.60033C15.1 8.82255 15.0889 9.05588 15.2 9.30033C15.3111 9.54477 15.5 9.72255 15.7667 9.83366C16.0111 9.94477 16.2502 9.95588 16.484 9.86699C16.7178 9.7781 16.912 9.62255 17.0667 9.40033C17.2667 9.11144 17.5 8.89499 17.7667 8.75099C18.0334 8.60699 18.3334 8.53455 18.6667 8.53366C19.2 8.53366 19.6334 8.68388 19.9667 8.98433C20.3 9.28477 20.4667 9.6901 20.4667 10.2003C20.4667 10.5114 20.3778 10.8061 20.2 11.0843C20.0222 11.3625 19.7111 11.7123 19.2667 12.1337C18.6222 12.6892 18.2111 13.1172 18.0334 13.4177C17.8556 13.7181 17.7445 14.1568 17.7 14.7337C17.6778 15.0003 17.7614 15.2337 17.9507 15.4337C18.14 15.6337 18.3787 15.7337 18.6667 15.7337ZM10.6667 24.0003C9.93335 24.0003 9.3058 23.7394 8.78402 23.2177C8.26224 22.6959 8.00091 22.0679 8.00002 21.3337V5.33366C8.00002 4.60033 8.26135 3.97277 8.78402 3.45099C9.30669 2.92921 9.93424 2.66788 10.6667 2.66699H26.6667C27.4 2.66699 28.028 2.92833 28.5507 3.45099C29.0734 3.97366 29.3342 4.60121 29.3334 5.33366V21.3337C29.3334 22.067 29.0725 22.695 28.5507 23.2177C28.0289 23.7403 27.4009 24.0012 26.6667 24.0003H10.6667ZM5.33335 29.3337C4.60002 29.3337 3.97246 29.0728 3.45069 28.551C2.92891 28.0292 2.66758 27.4012 2.66669 26.667V9.33366C2.66669 8.95588 2.79469 8.63944 3.05069 8.38433C3.30669 8.12921 3.62313 8.00121 4.00002 8.00033C4.37691 7.99944 4.6938 8.12744 4.95069 8.38433C5.20758 8.64121 5.33513 8.95766 5.33335 9.33366V26.667H22.6667C23.0445 26.667 23.3614 26.795 23.6174 27.051C23.8734 27.307 24.0009 27.6234 24 28.0003C23.9991 28.3772 23.8711 28.6941 23.616 28.951C23.3609 29.2079 23.0445 29.3354 22.6667 29.3337H5.33335Z" fill="white"/>
</svg>
