<svg width="32" height="32" viewBox="0 0 32 32" fill="none" xmlns="http://www.w3.org/2000/svg">
<g id="material-symbols-light:leaderboard-rounded">
<path id="Vector" d="M6.10272 26.6663C5.79784 26.6663 5.54228 26.5632 5.33606 26.357C5.12983 26.1508 5.02628 25.8948 5.02539 25.589V14.421C5.02539 14.1037 5.12895 13.8432 5.33606 13.6397C5.54317 13.4361 5.79872 13.3339 6.10272 13.333H9.48806C9.79295 13.333 10.0485 13.4361 10.2547 13.6423C10.4609 13.8495 10.5641 14.1055 10.5641 14.4103V25.5797C10.5641 25.8961 10.4609 26.1561 10.2547 26.3597C10.0485 26.5641 9.79295 26.6663 9.48806 26.6663H6.10272ZM14.0601 26.6663C13.7454 26.6663 13.4858 26.5632 13.2814 26.357C13.0769 26.1499 12.9747 25.8939 12.9747 25.589V6.41035C12.9747 6.10546 13.0778 5.84946 13.2841 5.64235C13.4903 5.43524 13.7463 5.33212 14.0521 5.33301H17.9414C18.2561 5.33301 18.5156 5.43612 18.7201 5.64235C18.9245 5.84946 19.0267 6.10546 19.0267 6.41035V25.589C19.0267 25.8948 18.9232 26.1508 18.7161 26.357C18.5089 26.5632 18.2534 26.6663 17.9494 26.6663H14.0601ZM22.5134 26.6663C22.2076 26.6663 21.9516 26.5641 21.7454 26.3597C21.5392 26.1552 21.4361 25.9019 21.4361 25.5997V17.0663C21.4361 16.7641 21.5392 16.5108 21.7454 16.3063C21.9516 16.1019 22.2076 15.9997 22.5134 15.9997H25.8974C26.2023 15.9997 26.4583 16.1019 26.6654 16.3063C26.8725 16.5108 26.9756 16.7641 26.9747 17.0663V25.5997C26.9747 25.9019 26.8716 26.1552 26.6654 26.3597C26.4592 26.5641 26.2032 26.6663 25.8974 26.6663H22.5134Z" fill="#FE5C97"/>
</g>
</svg>
