<svg width="137" height="137" viewBox="0 0 137 137" fill="none" xmlns="http://www.w3.org/2000/svg">
<path d="M17.125 17.125V119.875H119.875V17.125H17.125ZM51.375 68.5H77.0625V77.0625H68.5V111.312H59.9375V77.0625H51.375V68.5ZM94.1875 68.5H111.312V77.0625H94.1875V85.625H102.75C105.019 85.6318 107.193 86.5361 108.797 88.1404C110.401 89.7447 111.306 91.9187 111.312 94.1875V102.75C111.306 105.019 110.401 107.193 108.797 108.797C107.193 110.401 105.019 111.306 102.75 111.312H85.625V102.75H102.75V94.1875H94.1875C91.9187 94.1807 89.7447 93.2764 88.1404 91.6721C86.5361 90.0678 85.6318 87.8938 85.625 85.625V77.0625C85.6318 74.7937 86.5361 72.6197 88.1404 71.0154C89.7447 69.4111 91.9187 68.5068 94.1875 68.5Z" fill="#0288D1"/>
</svg>
