<svg width="32" height="32" viewBox="0 0 32 32" fill="none" xmlns="http://www.w3.org/2000/svg">
<path d="M18 19.3853C18.2756 19.3853 18.5178 19.2804 18.7267 19.0707C18.9356 18.8609 19.0405 18.6187 19.0414 18.344C19.0422 18.0693 18.9374 17.8271 18.7267 17.6173C18.516 17.4076 18.2738 17.3027 18 17.3027C17.7262 17.3027 17.484 17.4076 17.2734 17.6173C17.0627 17.8271 16.9578 18.0693 16.9587 18.344C16.9596 18.6187 17.0645 18.8609 17.2734 19.0707C17.4822 19.2804 17.7245 19.3862 18 19.3853ZM17.4107 15.6307H18.5894C18.624 15.0716 18.7125 14.6507 18.8547 14.368C18.996 14.0853 19.3369 13.6907 19.8774 13.184C20.4409 12.672 20.8338 12.2142 21.056 11.8107C21.2782 11.4089 21.3894 10.9471 21.3894 10.4253C21.3894 9.52756 21.0694 8.77956 20.4294 8.18134C19.7894 7.58223 18.9796 7.28267 18 7.28267C17.2596 7.28267 16.6018 7.48267 16.0267 7.88267C15.4516 8.28267 15.0138 8.828 14.7134 9.51867L15.7947 9.99467C16.0462 9.47378 16.3529 9.08267 16.7147 8.82134C17.0765 8.56 17.5049 8.42978 18 8.43067C18.6365 8.43067 19.164 8.61911 19.5827 8.996C20.0005 9.37289 20.2094 9.85956 20.2094 10.456C20.2094 10.8187 20.108 11.156 19.9054 11.468C19.7018 11.78 19.352 12.1556 18.856 12.5947C18.2942 13.0853 17.9129 13.5356 17.712 13.9453C17.5111 14.3551 17.4107 14.9169 17.4107 15.6307ZM10.8214 22.6667C10.2071 22.6667 9.69469 22.4613 9.28402 22.0507C8.87336 21.64 8.66758 21.1276 8.66669 20.5133V6.15334C8.66669 5.54 8.87247 5.02756 9.28402 4.616C9.69558 4.20445 10.208 3.99911 10.8214 4H25.18C25.7934 4 26.3058 4.20534 26.7174 4.616C27.1289 5.02667 27.3342 5.53911 27.3334 6.15334V20.5133C27.3334 21.1267 27.128 21.6387 26.7174 22.0493C26.3067 22.46 25.7938 22.6658 25.1787 22.6667H10.8214ZM10.8214 21.3333H25.18C25.3845 21.3333 25.5725 21.248 25.744 21.0773C25.9156 20.9067 26.0009 20.7187 26 20.5133V6.15334C26 5.94889 25.9147 5.76089 25.744 5.58934C25.5734 5.41778 25.3849 5.33245 25.1787 5.33334H10.8214C10.616 5.33334 10.4276 5.41867 10.256 5.58934C10.0845 5.76 9.99913 5.948 10 6.15334V20.5133C10 20.7178 10.0854 20.9058 10.256 21.0773C10.4267 21.2489 10.6147 21.3342 10.82 21.3333M6.82002 26.6667C6.20669 26.6667 5.69425 26.4613 5.28269 26.0507C4.87113 25.64 4.6658 25.1276 4.66669 24.5133V8.82H6.00002V24.5133C6.00002 24.7178 6.08536 24.9058 6.25602 25.0773C6.42669 25.2489 6.61469 25.3342 6.82002 25.3333H22.5134V26.6667H6.82002Z" fill="white"/>
</svg>
