<svg width="24" height="24" viewBox="0 0 24 24" fill="none" xmlns="http://www.w3.org/2000/svg">
<g id="mynaui:eye">
<g id="Group">
<path id="Vector" d="M2.54999 13.406C2.27799 13.033 2.14199 12.846 2.04799 12.486C1.98453 12.1654 1.98453 11.8356 2.04799 11.515C2.14199 11.154 2.27799 10.967 2.54999 10.595C4.03899 8.55 7.30299 5 12 5C16.697 5 19.961 8.55 21.45 10.594C21.722 10.967 21.858 11.154 21.952 11.514C22.0155 11.8346 22.0155 12.1644 21.952 12.485C21.858 12.846 21.722 13.033 21.45 13.405C19.961 15.45 16.697 19 12 19C7.30299 19 4.03899 15.45 2.54999 13.406Z" stroke="black" stroke-width="1.5" stroke-linecap="round" stroke-linejoin="round"/>
<path id="Vector_2" d="M12 14C12.5304 14 13.0391 13.7893 13.4142 13.4142C13.7893 13.0391 14 12.5304 14 12C14 11.4696 13.7893 10.9609 13.4142 10.5858C13.0391 10.2107 12.5304 10 12 10C11.4696 10 10.9609 10.2107 10.5858 10.5858C10.2107 10.9609 10 11.4696 10 12C10 12.5304 10.2107 13.0391 10.5858 13.4142C10.9609 13.7893 11.4696 14 12 14Z" stroke="black" stroke-width="1.5" stroke-linecap="round" stroke-linejoin="round"/>
</g>
</g>
</svg>
