<svg xmlns="http://www.w3.org/2000/svg" viewBox="0 0 16 16" fill="#000000" id="Eye-Closed--Streamline-Phosphor" height="16" width="16"><desc>Eye Closed Streamline Icon: https://streamlinehq.com</desc><path d="M15.513075 10.0455875c-0.28885 0.1647125 -0.65655 0.06369375 -0.8207125 -0.22546875l-1.427975 -2.49520625c-0.8301875 0.56133125 -1.74598125 0.9842 -2.71165625 1.2521125l0.441175 2.64701875c0.05474375 0.32774375 -0.1667375 0.63775 -0.49453125 0.69219375 -0.03205625 0.00524375 -0.064475 0.00800625 -0.09695625 0.00826875 -0.293725 -0.00044375 -0.5441375 -0.21304375 -0.59223125 -0.5028l-0.43365625 -2.59891875c-0.91450625 0.1272625 -1.8422375 0.1272625 -2.75675 0l-0.43365 2.59891875c-0.04819375 0.29031875 -0.29944375 0.5030875 -0.5937375 0.5028 -0.0332375 -0.00014375 -0.06640625 -0.00290625 -0.09920625 -0.00826875 -0.32779375 -0.05444375 -0.54928125 -0.36445 -0.49453125 -0.69219375l0.443425 -2.64701875c-0.96529375 -0.2687625 -1.88056875 -0.69239375 -2.71015 -1.25436875l-1.42346875 2.4974625c-0.231425 0.40325 -0.8126 0.4047625 -1.0461125 0.00271875 -0.10838125 -0.18659375 -0.108975 -0.416825 -0.001575 -0.603975l1.5031375 -2.6304875C1.23593125 6.1322375 0.7504375 5.62913125 0.3133875 5.08524375c-0.3088 -0.344775 -0.12856875 -0.89454375 0.3244125 -0.98958125 0.23315 -0.04891875 0.47319375 0.04443125 0.6120375 0.2380125 1.2476 1.54371875 3.43015 3.38205625 6.74756875 3.38205625s5.49996875 -1.8405875 6.74756875 -3.38205625c0.26410625 -0.38009375 0.8406375 -0.33175625 1.03775625 0.08701875 0.10439375 0.2217625 0.0637125 0.48469375 -0.10280625 0.66455 -0.43705 0.5438875 -0.92255 1.04699375 -1.450525 1.50313125l1.50313125 2.6304875c0.16983125 0.28860625 0.07115 0.66034375 -0.21945625 0.826725Z" stroke-width="0.0625"></path></svg>