<svg width="25" height="24" viewBox="0 0 25 24" fill="none" xmlns="http://www.w3.org/2000/svg">
<g id="mynaui:eye">
<g id="Group">
<path id="Vector" d="M3.04996 13.406C2.77796 13.033 2.64196 12.846 2.54796 12.486C2.4845 12.1654 2.4845 11.8356 2.54796 11.515C2.64196 11.154 2.77796 10.967 3.04996 10.595C4.53896 8.55 7.80296 5 12.5 5C17.197 5 20.461 8.55 21.95 10.594C22.222 10.967 22.358 11.154 22.452 11.514C22.5154 11.8346 22.5154 12.1644 22.452 12.485C22.358 12.846 22.222 13.033 21.95 13.405C20.461 15.45 17.197 19 12.5 19C7.80296 19 4.53896 15.45 3.04996 13.406Z" stroke="black" stroke-width="1.5" stroke-linecap="round" stroke-linejoin="round"/>
<path id="Vector_2" d="M12.5 14C13.0304 14 13.5391 13.7893 13.9142 13.4142C14.2893 13.0391 14.5 12.5304 14.5 12C14.5 11.4696 14.2893 10.9609 13.9142 10.5858C13.5391 10.2107 13.0304 10 12.5 10C11.9696 10 11.4609 10.2107 11.0858 10.5858C10.7107 10.9609 10.5 11.4696 10.5 12C10.5 12.5304 10.7107 13.0391 11.0858 13.4142C11.4609 13.7893 11.9696 14 12.5 14Z" stroke="black" stroke-width="1.5" stroke-linecap="round" stroke-linejoin="round"/>
</g>
</g>
</svg>
