<svg width="25" height="24" viewBox="0 0 25 24" fill="none" xmlns="http://www.w3.org/2000/svg">
<g id="si:lock-line">
<path id="Vector" d="M8.5 10V7C8.5 4.79 10.29 3 12.5 3C14.71 3 16.5 4.79 16.5 7V10M12.5 15C12.7652 15 13.0196 14.8946 13.2071 14.7071C13.3946 14.5196 13.5 14.2652 13.5 14C13.5 13.7348 13.3946 13.4804 13.2071 13.2929C13.0196 13.1054 12.7652 13 12.5 13C12.2348 13 11.9804 13.1054 11.7929 13.2929C11.6054 13.4804 11.5 13.7348 11.5 14C11.5 14.2652 11.6054 14.5196 11.7929 14.7071C11.9804 14.8946 12.2348 15 12.5 15ZM12.5 15V18M7.1 10H17.9C18.78 10 19.5 10.72 19.5 11.6V18.6C19.5 19.92 18.42 21 17.1 21H7.9C6.58 21 5.5 19.92 5.5 18.6V11.6C5.5 10.72 6.22 10 7.1 10Z" stroke="black" stroke-width="1.5" stroke-miterlimit="10" stroke-linecap="round" stroke-linejoin="round"/>
</g>
</svg>
