<svg width="36" height="37" viewBox="0 0 36 37" fill="none" xmlns="http://www.w3.org/2000/svg">
<g id="Social Media Icon Square/Twitter">
<path id="Twitter" d="M21.0271 11.2015V11.1982H21.8711L22.1794 11.2598C22.385 11.2998 22.5717 11.3522 22.7394 11.4171C22.9071 11.4819 23.0694 11.5575 23.2263 11.644C23.3832 11.7304 23.5255 11.8185 23.6532 11.9082C23.7798 11.9968 23.8934 12.0908 23.9941 12.1902C24.0936 12.2907 24.2489 12.3166 24.4599 12.268C24.6709 12.2194 24.8981 12.1518 25.1416 12.0654C25.385 11.979 25.6258 11.8817 25.8638 11.7736C26.1019 11.6656 26.2469 11.597 26.2988 11.5678C26.3497 11.5375 26.3768 11.5213 26.38 11.5192L26.3832 11.5143L26.3995 11.5062L26.4157 11.4981L26.4319 11.49L26.4482 11.4819L26.4514 11.477L26.4563 11.4738L26.4612 11.4705L26.4644 11.4657L26.4806 11.4608L26.4968 11.4576L26.4936 11.4819L26.4887 11.5062L26.4806 11.5305L26.4725 11.5548L26.4644 11.571L26.4563 11.5872L26.4482 11.6116C26.4427 11.6278 26.4373 11.6494 26.4319 11.6764C26.4265 11.7034 26.3751 11.8115 26.2777 12.0006C26.1803 12.1897 26.0586 12.3815 25.9125 12.576C25.7665 12.7705 25.6355 12.9174 25.5198 13.0168C25.4029 13.1173 25.3255 13.1875 25.2876 13.2275C25.2498 13.2686 25.2038 13.3064 25.1497 13.341L25.0685 13.3945L25.0523 13.4026L25.0361 13.4107L25.0328 13.4156L25.028 13.4188L25.0231 13.422L25.0198 13.4269L25.0036 13.435L24.9874 13.4431L24.9841 13.448L24.9793 13.4512L24.9744 13.4545L24.9711 13.4593L24.9679 13.4642L24.963 13.4674L24.9582 13.4707L24.9549 13.4755H25.0361L25.4905 13.3783C25.7935 13.3134 26.083 13.2351 26.3589 13.1433L26.7971 12.9974L26.8458 12.9812L26.8702 12.9731L26.8864 12.965L26.9026 12.9569L26.9188 12.9488L26.9351 12.9406L26.9675 12.9358L27 12.9325V12.965L26.9919 12.9682L26.9838 12.9731L26.9805 12.9779L26.9757 12.9812L26.9708 12.9844L26.9675 12.9893L26.9643 12.9941L26.9594 12.9974L26.9546 13.0006L26.9513 13.0055L26.9481 13.0103L26.9432 13.0136L26.9351 13.0298L26.927 13.046L26.9221 13.0492C26.9199 13.0525 26.8512 13.1443 26.716 13.3248C26.5807 13.5063 26.5077 13.5982 26.4968 13.6003C26.486 13.6036 26.4709 13.6198 26.4514 13.649C26.433 13.6792 26.3183 13.7997 26.1073 14.0104C25.8963 14.2211 25.6897 14.4086 25.4873 14.5728C25.2839 14.7382 25.1811 14.9413 25.1789 15.1823C25.1757 15.4222 25.1632 15.6934 25.1416 15.9959C25.1199 16.2985 25.0794 16.6254 25.0198 16.9765C24.9603 17.3277 24.8684 17.7248 24.7439 18.1679C24.6195 18.6109 24.468 19.0431 24.2894 19.4645C24.1109 19.8859 23.9243 20.2641 23.7295 20.5991C23.5347 20.9341 23.3562 21.2177 23.1939 21.4501C23.0316 21.6824 22.8666 21.9012 22.6988 22.1065C22.5311 22.3118 22.319 22.5431 22.0626 22.8002C21.8051 23.0563 21.6644 23.1968 21.6406 23.2216C21.6157 23.2454 21.5097 23.334 21.3225 23.4875C21.1363 23.642 20.9362 23.7965 20.7219 23.951C20.5088 24.1045 20.3129 24.2325 20.1344 24.3352C19.9558 24.4378 19.7405 24.555 19.4884 24.6869C19.2373 24.8198 18.9657 24.943 18.6736 25.0564C18.3814 25.1699 18.073 25.2752 17.7484 25.3725C17.4238 25.4697 17.11 25.5454 16.807 25.5994C16.5041 25.6534 16.1605 25.6994 15.7764 25.7372L15.2002 25.7939V25.802H14.1452V25.7939L14.0072 25.7858C13.9152 25.7804 13.8395 25.775 13.78 25.7696C13.7205 25.7642 13.4959 25.7345 13.1064 25.6805C12.7169 25.6264 12.4112 25.5724 12.1894 25.5184C11.9675 25.4643 11.6375 25.3617 11.1993 25.2104C10.761 25.0591 10.3861 24.9062 10.0745 24.7517C9.76394 24.5983 9.56917 24.501 9.49017 24.46C9.41226 24.42 9.32462 24.3703 9.22723 24.3108L9.08115 24.2217L9.07792 24.2168L9.07304 24.2136L9.06817 24.2104L9.06492 24.2055L9.04869 24.1974L9.03246 24.1893L9.02923 24.1844L9.02435 24.1812L9.01948 24.1779L9.01623 24.1731L9.013 24.1682L9.00812 24.165H9V24.1326L9.01623 24.1358L9.03246 24.1407L9.1055 24.1488C9.15419 24.1542 9.28675 24.1623 9.50316 24.1731C9.71958 24.1839 9.9495 24.1839 10.193 24.1731C10.4364 24.1623 10.6853 24.1379 10.9396 24.1001C11.1939 24.0623 11.4941 23.9975 11.8404 23.9056C12.1867 23.8138 12.5048 23.7046 12.7948 23.5782C13.0837 23.4507 13.2893 23.3556 13.4116 23.293C13.5327 23.2314 13.7178 23.1168 13.9666 22.9493L14.3399 22.6981L14.3432 22.6932L14.3481 22.69L14.3529 22.6868L14.3562 22.6819L14.3594 22.677L14.3643 22.6738L14.3692 22.6706L14.3724 22.6657L14.3886 22.6608L14.4049 22.6576L14.4081 22.6414L14.413 22.6252L14.4179 22.6219L14.4211 22.6171L14.2913 22.609C14.2047 22.6036 14.1208 22.5982 14.0397 22.5928C13.9585 22.5874 13.8314 22.563 13.6583 22.5198C13.4851 22.4766 13.2985 22.4118 13.0983 22.3253C12.8981 22.2389 12.7033 22.1362 12.514 22.0174C12.3246 21.8985 12.1877 21.7996 12.1033 21.7207C12.02 21.6429 11.9118 21.5327 11.7787 21.3901C11.6467 21.2464 11.532 21.0989 11.4346 20.9476C11.3372 20.7963 11.2442 20.6218 11.1555 20.4241L11.0207 20.1291L11.0126 20.1048L11.0045 20.0804L10.9996 20.0642L10.9964 20.048L11.0207 20.0513L11.0451 20.0561L11.2236 20.0804C11.3427 20.0967 11.5293 20.1021 11.7836 20.0967C12.0379 20.0913 12.2137 20.0804 12.3111 20.0642C12.4085 20.048 12.468 20.0372 12.4896 20.0318L12.5221 20.0237L12.5627 20.0156L12.6032 20.0075L12.6065 20.0026L12.6114 19.9994L12.6162 19.9962L12.6195 19.9913L12.587 19.9832L12.5546 19.9751L12.5221 19.967L12.4896 19.9589L12.4572 19.9508C12.4355 19.9454 12.3977 19.9346 12.3436 19.9184C12.2895 19.9022 12.1434 19.8427 11.9053 19.7401C11.6673 19.6374 11.4779 19.5375 11.3372 19.4402C11.1962 19.3427 11.0618 19.236 10.9347 19.1209C10.8081 19.0042 10.6691 18.854 10.5176 18.6703C10.3661 18.4866 10.2308 18.2732 10.1118 18.0301C9.99279 17.787 9.90352 17.5546 9.844 17.3331C9.78472 17.1129 9.74561 16.8878 9.72716 16.6605L9.69793 16.3201L9.71416 16.3233L9.73039 16.3282L9.74662 16.3363L9.76285 16.3444L9.77908 16.3525L9.79531 16.3606L10.0469 16.4741C10.2146 16.5497 10.4229 16.6146 10.6718 16.6686C10.9207 16.7226 11.0694 16.7523 11.1181 16.7577L11.1912 16.7658H11.3372L11.334 16.761L11.3291 16.7577L11.3243 16.7545L11.321 16.7496L11.3178 16.7448L11.3129 16.7415L11.308 16.7383L11.3048 16.7334L11.2885 16.7253L11.2723 16.7172L11.2691 16.7123L11.2642 16.7091L11.2593 16.7059L11.2561 16.701L11.2399 16.6929L11.2236 16.6848L11.2204 16.6799C11.2171 16.6778 11.1706 16.6432 11.0808 16.5762C10.9921 16.5081 10.899 16.4201 10.8016 16.312C10.7042 16.2039 10.6069 16.0905 10.5095 15.9716C10.4119 15.8525 10.325 15.725 10.2498 15.5907C10.174 15.4557 10.094 15.2838 10.0096 15.0753C9.92625 14.8678 9.86294 14.6587 9.81966 14.448C9.77639 14.2373 9.75204 14.0293 9.74662 13.824C9.74121 13.6187 9.74662 13.4431 9.76285 13.2972C9.77908 13.1514 9.81154 12.9866 9.86023 12.8029C9.90893 12.6192 9.97927 12.4247 10.0712 12.2194L10.2092 11.9114L10.2173 11.8871L10.2254 11.8628L10.2303 11.8595L10.2335 11.8547L10.2368 11.8498L10.2417 11.8466L10.2465 11.8498L10.2498 11.8547L10.253 11.8595L10.2579 11.8628L10.2628 11.866L10.266 11.8709L10.2693 11.8758L10.2741 11.879L10.2822 11.8952L10.2904 11.9114L10.2952 11.9147L10.2985 11.9195L10.5176 12.1626C10.6637 12.3247 10.8368 12.5057 11.037 12.7056C11.2372 12.9055 11.3481 13.0093 11.3697 13.0168C11.3914 13.0255 11.4184 13.0503 11.4509 13.0914C11.4833 13.1314 11.5915 13.227 11.7755 13.3783C11.9594 13.5295 12.2002 13.7051 12.4977 13.905C12.7953 14.1049 13.1253 14.3022 13.4878 14.4967C13.8503 14.6912 14.2399 14.8667 14.6564 15.0234C15.073 15.1801 15.3652 15.2828 15.5329 15.3314C15.7006 15.38 15.9874 15.4421 16.3931 15.5178C16.7989 15.5934 17.1046 15.6421 17.3102 15.6637C17.5158 15.6853 17.6565 15.6977 17.7322 15.7009L17.8458 15.7042L17.8426 15.6799L17.8377 15.6556L17.8052 15.4529C17.7836 15.3179 17.7728 15.1288 17.7728 14.8857C17.7728 14.6425 17.7917 14.4183 17.8296 14.213C17.8675 14.0077 17.9243 13.7997 18 13.589C18.0757 13.3783 18.1499 13.2092 18.2224 13.0817C18.296 12.9552 18.3923 12.811 18.5113 12.6489C18.6303 12.4868 18.7845 12.3193 18.9739 12.1464C19.1632 11.9735 19.3796 11.8196 19.6231 11.6845C19.8665 11.5494 20.0911 11.4468 20.2967 11.3765C20.5023 11.3063 20.6754 11.2604 20.8161 11.2388C20.9567 11.2172 21.0271 11.2047 21.0271 11.2015V11.2015Z" fill="#FAFFFF"/>
</g>
</svg>
