<svg width="109" height="37" viewBox="0 0 109 37" fill="none" xmlns="http://www.w3.org/2000/svg">
<path d="M103.709 7.0935H98.9566V0.439705H88.5206L83.7213 7.0935H75.193L72.3414 9.94513V7.0935H65.6876V0.439705H44.7757V7.0935H15.3564L10.5561 0.439705H0.100159V23.2527L13.4078 36.5603H26.7154V32.7582L30.5175 36.5603H56.1822V32.7582L59.9843 36.5603H72.3414V32.7582L76.1436 36.5603H99.9071L108.462 28.0054V11.8462L103.709 7.0935ZM16.2594 16.5989H9.60558V18.5H16.2594V26.1044H5.80341L2.00124 22.3022V2.34079H9.60558V8.99459H16.2594V16.5989ZM44.7757 26.1044H21.9626L18.1605 22.3022V8.99459H25.7648V18.5H27.6659V8.99459H35.2702V18.5H37.1713V8.99459H44.7757V26.1044ZM54.2811 26.1044H46.6767V8.99459H54.2811V26.1044ZM54.2811 7.0935H46.6767V2.34079H54.2811V7.0935ZM70.4403 16.5989H63.7865V18.5H70.4403V26.1044H59.9843L56.1822 22.3022V2.34079H63.7865V8.99459H70.4403V16.5989ZM87.5501 16.5989H79.9457V18.5H87.5501V26.1044H76.1436L72.3414 22.3022V12.7968L76.1436 8.99459H87.5501V16.5989ZM106.561 26.1044H98.9566V16.5989H97.0555V26.1044H89.4512V2.34079H97.0555V8.99459H102.759L106.561 12.7968V26.1044Z" fill="#FAFFFF"/>
</svg>
