<svg width="25" height="26" viewBox="0 0 25 26" fill="none" xmlns="http://www.w3.org/2000/svg">
<path id="Vector" d="M3.90623 1.28125C3.90623 1.07405 3.98854 0.875336 4.13506 0.728823C4.28157 0.58231 4.48028 0.5 4.68748 0.5H20.3125C20.5197 0.5 20.7184 0.58231 20.8649 0.728823C21.0114 0.875336 21.0937 1.07405 21.0937 1.28125C21.0937 2.12187 21.075 2.92188 21.0406 3.68125C21.658 3.78349 22.2487 4.00831 22.7778 4.34247C23.3069 4.67663 23.7638 5.11335 24.1214 5.62689C24.4791 6.14042 24.7302 6.72038 24.8602 7.33254C24.9901 7.94471 24.9961 8.57669 24.8779 9.19123C24.7597 9.80577 24.5197 10.3904 24.1719 10.9107C23.8241 11.431 23.3757 11.8763 22.8531 12.2205C22.3304 12.5647 21.7441 12.8008 21.1288 12.9148C20.5135 13.0288 19.8816 13.0185 19.2703 12.8844C18.0359 15.7984 16.3359 17.2234 14.8437 17.5891V20.9844L17.0703 21.5406C17.3734 21.6156 17.6594 21.7516 17.9094 21.9391L20.7812 24.0938C20.9124 24.1921 21.0093 24.3293 21.0582 24.4858C21.1071 24.6423 21.1055 24.8102 21.0536 24.9658C21.0018 25.1214 20.9023 25.2567 20.7693 25.3525C20.6363 25.4484 20.4765 25.5 20.3125 25.5H4.68748C4.52351 25.5 4.3637 25.4484 4.23068 25.3525C4.09766 25.2567 3.99818 25.1214 3.94632 24.9658C3.89447 24.8102 3.89288 24.6423 3.94177 24.4858C3.99066 24.3293 4.08756 24.1921 4.21873 24.0938L7.09061 21.9391C7.34061 21.7516 7.62654 21.6156 7.92967 21.5406L10.1562 20.9844V17.5891C8.66405 17.2234 6.96405 15.7984 5.72967 12.8828C5.11809 13.0176 4.48568 13.0286 3.86981 12.9149C3.25394 12.8013 2.66709 12.5654 2.14391 12.2211C1.62073 11.8769 1.17184 11.4313 0.823742 10.9107C0.475646 10.3901 0.235403 9.80496 0.117203 9.18994C-0.000996385 8.57493 0.00524302 7.94246 0.135553 7.3299C0.265863 6.71734 0.517602 6.13709 0.875902 5.62345C1.2342 5.1098 1.6918 4.67315 2.22166 4.3393C2.75153 4.00545 3.34293 3.78117 3.96092 3.67969C3.92414 2.88074 3.9059 2.08104 3.90623 1.28125ZM4.06092 5.25C3.24559 5.39918 2.52291 5.86615 2.05187 6.54817C1.58083 7.23018 1.40002 8.07138 1.5492 8.88672C1.69839 9.70205 2.16535 10.4247 2.84737 10.8958C3.52938 11.3668 4.37059 11.5476 5.18592 11.3984C4.66561 9.75781 4.26717 7.73281 4.06092 5.25ZM19.8156 11.3984C20.6309 11.5476 21.4721 11.3668 22.1542 10.8958C22.8362 10.4247 23.3031 9.70205 23.4523 8.88672C23.6015 8.07138 23.4207 7.23018 22.9497 6.54817C22.4786 5.86615 21.7559 5.39918 20.9406 5.25C20.7328 7.73438 20.3344 9.75781 19.8156 11.3984Z" fill="#9E9E9E" fill-opacity="0.65"/>
</svg>
