<svg width="137" height="137" viewBox="0 0 137 137" fill="none" xmlns="http://www.w3.org/2000/svg">
<path d="M50.9651 105.019C50.9651 105.019 45.8629 107.988 54.6009 108.99C65.1885 110.199 70.5989 110.026 82.2632 107.821C82.2632 107.821 85.336 109.742 89.6194 111.408C63.4621 122.614 30.4226 110.758 50.9651 105.019ZM47.767 90.3932C47.767 90.3932 42.043 94.6306 50.7885 95.536C62.0985 96.7038 71.0281 96.799 86.4877 93.8235C86.4877 93.8235 88.6208 95.9909 91.9805 97.1747C60.3614 106.422 25.1438 97.9025 47.767 90.3932Z" fill="#0074BD"/>
<path d="M74.71 65.5792C81.1586 73.0018 73.0189 79.6752 73.0189 79.6752C73.0189 79.6752 89.3829 71.2294 81.8693 60.6482C74.8491 50.7853 69.4676 45.8865 98.6036 28.9884C98.6036 28.9895 52.8681 40.4086 74.71 65.5792Z" fill="#EA2D2E"/>
<path d="M109.304 115.839C109.304 115.839 113.081 118.953 105.142 121.361C90.0486 125.933 42.3084 127.312 29.0494 121.544C24.2854 119.469 33.2225 116.593 36.0342 115.987C38.9658 115.352 40.6398 115.467 40.6398 115.467C35.3385 111.735 6.37585 122.799 25.9305 125.973C79.2545 134.616 123.133 122.08 109.304 115.839ZM53.4214 75.2365C53.4214 75.2365 29.1403 81.0045 44.8236 83.1012C51.4467 83.9874 64.6437 83.7841 76.9448 82.7523C86.995 81.9078 97.0806 80.1043 97.0806 80.1043C97.0806 80.1043 93.54 81.6231 90.9755 83.372C66.3134 89.8592 18.6823 86.8377 32.3962 80.206C43.9898 74.5986 53.4214 75.2365 53.4214 75.2365ZM96.9799 99.5829C122.048 86.5605 110.456 74.0453 102.366 75.731C100.388 76.1431 99.5005 76.5017 99.5005 76.5017C99.5005 76.5017 100.237 75.3468 101.641 74.8502C117.646 69.2257 129.952 91.4432 96.479 100.243C96.479 100.241 96.8633 99.8933 96.9799 99.5829Z" fill="#0074BD"/>
<path d="M81.8693 1.69861C81.8693 1.69861 95.7491 15.587 68.7012 36.9365C47.0103 54.0679 63.7553 63.8335 68.6937 74.9958C56.0309 63.5723 46.7427 53.5146 52.973 44.1547C62.122 30.4183 87.4681 23.7556 81.8693 1.69861Z" fill="#EA2D2E"/>
<path d="M55.8853 134.882C79.9416 136.42 116.893 134.026 117.768 122.642C117.768 122.642 116.086 126.957 97.8844 130.381C77.3493 134.247 52.0172 133.797 36.9975 131.317C36.9975 131.318 40.0746 133.865 55.8853 134.882Z" fill="#0074BD"/>
</svg>
