<svg width="137" height="137" viewBox="0 0 137 137" fill="none" xmlns="http://www.w3.org/2000/svg">
<path fill-rule="evenodd" clip-rule="evenodd" d="M65.369 9.37881C67.307 8.29137 69.6931 8.29137 71.6282 9.37881C81.2039 14.7532 110.02 30.9306 119.598 36.305C121.536 37.3896 122.729 39.3989 122.729 41.5738C122.729 52.3226 122.729 84.6746 122.729 95.4234C122.729 97.5982 121.536 99.6076 119.598 100.695C110.022 106.069 81.2068 122.247 71.6282 127.621C69.6902 128.709 67.3041 128.709 65.369 127.621C55.7933 122.247 26.9776 106.069 17.399 100.695C15.4639 99.6076 14.2708 97.6011 14.2708 95.4262C14.2708 84.6774 14.2708 52.3255 14.2708 41.5767C14.2708 39.4018 15.4639 37.3925 17.4019 36.305C26.9747 30.9306 55.7961 14.7532 65.369 9.37881Z" fill="#283593"/>
<path fill-rule="evenodd" clip-rule="evenodd" d="M15.1385 98.1947C14.3793 97.1786 14.2708 96.2139 14.2708 94.9153C14.2708 84.2293 14.2708 52.0628 14.2708 41.374C14.2708 39.2105 15.461 37.2126 17.3933 36.1337C26.9348 30.7907 55.6534 14.7075 65.1949 9.36162C67.1272 8.27989 69.7444 8.30272 71.6767 9.38445C81.2182 14.7274 109.84 30.6737 119.381 36.0167C120.152 36.4505 120.74 36.9728 121.265 37.6607L15.1385 98.1947Z" fill="#5C6BC0"/>
<path fill-rule="evenodd" clip-rule="evenodd" d="M68.5 28.5416C90.5541 28.5416 108.458 46.4458 108.458 68.5C108.458 90.5541 90.5541 108.458 68.5 108.458C46.4458 108.458 28.5417 90.5541 28.5417 68.5C28.5417 46.4458 46.4458 28.5416 68.5 28.5416ZM68.5 48.5208C79.5256 48.5208 88.4792 57.4715 88.4792 68.5C88.4792 79.5256 79.5256 88.4791 68.5 88.4791C57.4743 88.4791 48.5208 79.5256 48.5208 68.5C48.5208 57.4715 57.4715 48.5208 68.5 48.5208Z" fill="white"/>
<path fill-rule="evenodd" clip-rule="evenodd" d="M121.259 37.6892C122.732 39.0678 122.703 41.1456 122.703 42.781C122.703 53.6126 122.612 84.4205 122.729 95.252C122.741 96.3823 122.367 97.5725 121.807 98.4687L67.3383 68.4999L121.259 37.6892Z" fill="#3949AB"/>
</svg>
