<svg width="25" height="24" viewBox="0 0 25 24" fill="none" xmlns="http://www.w3.org/2000/svg">
<g id="Icons/logo-google">
<path id="Vector" d="M21.1453 10.3123C21.2578 10.9148 21.3191 11.5447 21.3191 12.2021C21.3191 17.3439 17.8778 21 12.6802 21C11.4982 21.0004 10.3277 20.7678 9.2356 20.3157C8.14351 19.8635 7.15121 19.2006 6.31541 18.3648C5.47961 17.529 4.81669 16.5367 4.36453 15.4446C3.91236 14.3525 3.67982 13.182 3.68018 12C3.67982 10.818 3.91236 9.64752 4.36453 8.55543C4.81669 7.46333 5.47961 6.47104 6.31541 5.63524C7.15121 4.79944 8.14351 4.13652 9.2356 3.68435C10.3277 3.23219 11.4982 2.99964 12.6802 3C15.1103 3 17.1409 3.89415 18.6988 5.346L16.1617 7.88308V7.87668C15.2173 6.97704 14.0187 6.51534 12.6802 6.51534C9.71066 6.51534 7.297 9.02408 7.297 11.9945C7.297 14.964 9.71066 17.4783 12.6802 17.4783C15.3745 17.4783 17.2085 15.9377 17.5852 13.8221H12.6802V10.3123H21.1463H21.1453Z" fill="#FAFFFF"/>
</g>
</svg>
