<svg width="183" height="183" viewBox="0 0 183 183" fill="none" xmlns="http://www.w3.org/2000/svg">
<path d="M34.875 22.875C28.2476 22.875 22.875 28.2476 22.875 34.875V148.125C22.875 154.752 28.2476 160.125 34.875 160.125H148.125C154.752 160.125 160.125 154.752 160.125 148.125V34.875C160.125 28.2476 154.752 22.875 148.125 22.875H34.875ZM91.5 97.2188C91.5 94.0604 94.0604 91.5 97.2188 91.5C100.377 91.5 102.938 94.0604 102.938 97.2188V137.25C102.928 140.281 101.721 143.185 99.5775 145.328C97.4346 147.471 94.5306 148.678 91.5 148.688H80.0625C77.0319 148.678 74.128 147.471 71.985 145.328C69.842 143.185 68.6341 140.281 68.625 137.25V131.531C68.625 128.373 71.1854 125.812 74.3438 125.812C77.5021 125.812 80.0625 128.373 80.0625 131.531C80.0625 134.69 82.6229 137.25 85.7812 137.25C88.9396 137.25 91.5 134.69 91.5 131.531V97.2188ZM125.812 91.5H142.969C146.127 91.5 148.688 94.0604 148.688 97.2188C148.688 100.377 146.127 102.938 142.969 102.938H131.531C128.373 102.938 125.812 105.498 125.812 108.656C125.812 111.815 128.373 114.375 131.531 114.375H137.25C140.281 114.384 143.185 115.592 145.328 117.735C147.471 119.878 148.678 122.782 148.688 125.812V137.25C148.678 140.281 147.471 143.185 145.328 145.328C143.185 147.471 140.281 148.678 137.25 148.688H120.094C116.935 148.688 114.375 146.127 114.375 142.969C114.375 139.81 116.935 137.25 120.094 137.25H131.531C134.69 137.25 137.25 134.69 137.25 131.531C137.25 128.373 134.69 125.812 131.531 125.812H125.812C122.782 125.803 119.878 124.596 117.735 122.453C115.592 120.31 114.384 117.406 114.375 114.375V102.938C114.384 99.9069 115.592 97.0029 117.735 94.86C119.878 92.717 122.782 91.509 125.812 91.5Z" fill="#FFCA28"/>
</svg>
