<svg width="138" height="137" viewBox="0 0 138 137" fill="none" xmlns="http://www.w3.org/2000/svg">
<path d="M69 79.0918C74.9112 79.0918 79.7031 74.2998 79.7031 68.3887C79.7031 62.4775 74.9112 57.6855 69 57.6855C63.0888 57.6855 58.2969 62.4775 58.2969 68.3887C58.2969 74.2998 63.0888 79.0918 69 79.0918Z" fill="#00D8FF"/>
<path d="M69 92.9287C56.1355 93.2388 43.3033 91.5048 30.9825 87.7913C25.2911 85.9871 19.9828 83.145 15.326 79.4086C13.5483 78.1327 12.068 76.4871 10.9868 74.5849C9.90562 72.6826 9.24914 70.5687 9.0625 68.3886C9.0625 61.3117 16.8372 54.3761 29.8608 49.838C42.5115 45.8201 55.728 43.8713 69 44.0668C82.0949 43.8858 95.1346 45.7994 107.625 49.7352C113.106 51.4846 118.234 54.1892 122.772 57.724C124.517 58.9428 125.974 60.5295 127.039 62.372C128.104 64.2146 128.752 66.2684 128.938 68.3886C128.938 75.7438 120.247 83.1975 106.247 87.8298C94.1649 91.4233 81.6033 93.143 69 92.9287ZM69 49.1872C56.3026 49.0213 43.6594 50.8739 31.5433 54.6758C19.5558 58.8586 14.1829 64.5783 14.1829 68.3758C14.1829 72.3488 19.9583 78.5951 32.6393 82.932C44.4258 86.4684 56.6983 88.1143 69 87.8084C81.0577 88.024 93.0774 86.3925 104.641 82.9706C117.806 78.608 123.8 72.3531 123.8 68.3886C123.583 67.0284 123.087 65.7278 122.343 64.5688C121.599 63.4097 120.623 62.4174 119.476 61.6542C115.416 58.5171 110.835 56.1201 105.943 54.573C93.9934 50.8243 81.5224 49.0062 69 49.1872Z" fill="#00D8FF"/>
<path d="M44.6825 121.772C42.6853 121.817 40.7117 121.333 38.9627 120.367C32.832 116.831 30.7085 106.633 33.2815 93.0829C36.1217 80.1164 41.0371 67.6936 47.8378 56.2941C54.2214 44.8603 62.3918 34.5205 72.0397 25.666C76.2929 21.792 81.1977 18.7004 86.5274 16.5341C88.4562 15.6331 90.5592 15.1661 92.6881 15.1661C94.817 15.1661 96.92 15.6331 98.8489 16.5341C105.224 20.2074 107.334 31.4586 104.359 45.8992C101.435 58.1633 96.6468 69.9063 90.1622 80.7186C84.0037 92.0178 76.0905 102.268 66.7181 111.086C62.3117 115.113 57.198 118.291 51.6352 120.457C49.4088 121.286 47.0578 121.73 44.6825 121.772ZM52.2731 58.8372C45.7866 69.7531 41.0756 81.6304 38.3163 94.0248C35.9487 106.505 38.2221 114.01 41.5272 115.919C44.9522 117.901 53.2664 116.022 63.3616 107.202C72.31 98.7558 79.8631 88.9441 85.7397 78.1328C91.9515 67.7958 96.5442 56.5687 99.3583 44.8418C102.158 31.2488 99.7394 22.926 96.3058 20.9481C95.0187 20.4558 93.6436 20.2355 92.2672 20.3011C90.8908 20.3666 89.5428 20.7167 88.3084 21.3291C83.5637 23.2876 79.2014 26.0673 75.4219 29.5406C66.2049 38.0226 58.4005 47.9212 52.3031 58.8629L52.2731 58.8372Z" fill="#00D8FF"/>
<path d="M93.3047 121.827C87.5036 121.827 80.1356 118.317 72.4636 111.719C62.6478 102.783 54.3394 92.3207 47.8592 80.7358C41.1424 69.494 36.2659 57.2507 33.4143 44.4693C32.1805 38.8456 31.9515 33.0479 32.7378 27.3443C32.9227 25.2292 33.5681 23.1802 34.6286 21.3408C35.6892 19.5015 37.1392 17.9165 38.8771 16.6968C45.2434 13.0107 56.045 16.7996 67.0692 26.5865C76.2336 35.244 84.016 45.2558 90.1451 56.2727C96.8584 67.2519 101.786 79.2271 104.744 91.7514C106.033 97.5812 106.232 103.599 105.331 109.502C105.117 111.678 104.435 113.783 103.331 115.671C102.227 117.56 100.727 119.186 98.9345 120.44C97.2134 121.392 95.2709 121.87 93.3047 121.827ZM52.2903 78.1585C58.5073 89.2296 66.4438 99.2426 75.8029 107.823C85.4315 116.107 93.0692 117.888 96.3529 115.958C99.7779 113.967 102.304 105.841 99.7009 92.6933C96.8499 80.7353 92.1233 69.3041 85.6969 58.8243C79.848 48.2802 72.4196 38.6933 63.6699 30.3968C53.2921 21.1836 44.8752 19.1243 41.4459 21.1108C40.3776 21.9799 39.5009 23.0608 38.8709 24.2854C38.241 25.51 37.8714 26.8518 37.7854 28.2263C37.1053 33.3128 37.327 38.4794 38.4405 43.4889C41.1842 55.7117 45.8611 67.4183 52.2946 78.167L52.2903 78.1585Z" fill="#00D8FF"/>
</svg>
